<svg width="26" height="26" viewBox="0 0 26 26" fill="none" xmlns="http://www.w3.org/2000/svg">
<path d="M13 0C9.55219 0 6.24558 1.36964 3.80761 3.80761C1.36964 6.24558 0 9.55219 0 13H0C0 16.4478 1.36964 19.7544 3.80761 22.1924C6.24558 24.6304 9.55219 26 13 26C16.4478 26 19.7544 24.6304 22.1924 22.1924C24.6304 19.7544 26 16.4478 26 13C26 9.55219 24.6304 6.24558 22.1924 3.80761C19.7544 1.36964 16.4478 0 13 0V0ZM17.3333 19.2508C15.9158 19.5993 14.4596 19.7649 13 19.7438C11.5404 19.7649 10.0842 19.5993 8.66667 19.2508C7.22583 18.8554 6.5 18.2758 6.5 17.5229C6.5 16.1146 9.08375 15.6 10.7792 15.4158C10.6004 15.2262 10.4217 15.0258 10.2375 14.8146C8.6125 12.9296 7.77292 11.2342 7.77292 9.77708V9.48458C7.75034 8.78292 7.86905 8.08387 8.12199 7.42899C8.37492 6.77411 8.75692 6.17676 9.24529 5.67243C9.73365 5.1681 10.3184 4.76709 10.9648 4.49323C11.6112 4.21937 12.3061 4.07825 13.0081 4.07825C13.7102 4.07825 14.405 4.21937 15.0514 4.49323C15.6978 4.76709 16.2826 5.1681 16.771 5.67243C17.2593 6.17676 17.6413 6.77411 17.8943 7.42899C18.1472 8.08387 18.2659 8.78292 18.2433 9.48458V9.75C18.2433 11.2071 17.4146 12.9025 15.7788 14.7875C15.5946 14.9987 15.4158 15.1992 15.2371 15.3888C16.9379 15.5729 19.5163 16.0875 19.5163 17.4958C19.5 18.2704 18.7742 18.8554 17.3333 19.2508Z" fill="#0055B8"/>
</svg>
