<svg height="512" viewBox="0 0 512 512" width="512" xmlns="http://www.w3.org/2000/svg"><path d="m133.813 187.462h32.483v16h-32.483z" transform="matrix(.604 -.797 .797 .604 -96.359 196.953)"/><path d="m118.182 218.375h16.872v16h-16.872z" transform="matrix(.604 -.797 .797 .604 -130.27 190.514)"/><path d="m175.159 304a45.841 45.841 0 0 0 -31.665 12.623 22.523 22.523 0 0 1 -30.988 0 46.029 46.029 0 0 0 -77.2 26.7 73.631 73.631 0 0 0 8.416 46.2 217.724 217.724 0 0 1 25.785 79l.574 4.591a26.125 26.125 0 0 0 51.846 0l5.023-40.184a1.062 1.062 0 0 1 2.108 0l5.023 40.185a26.125 26.125 0 0 0 51.847 0l.573-4.591a217.763 217.763 0 0 1 25.785-79 73.635 73.635 0 0 0 8.417-46.2 46.294 46.294 0 0 0 -45.544-39.324zm23.132 77.758a233.691 233.691 0 0 0 -27.672 84.783l-.573 4.591a10.125 10.125 0 0 1 -20.093 0l-5.023-40.185a17.063 17.063 0 0 0 -33.862 0l-5.023 40.186a10.124 10.124 0 0 1 -20.092 0l-.574-4.591a233.661 233.661 0 0 0 -27.672-84.782 57.542 57.542 0 0 1 -6.576-36.1 30.029 30.029 0 0 1 50.369-17.428 38.522 38.522 0 0 0 53 0 30.029 30.029 0 0 1 50.367 17.419 57.543 57.543 0 0 1 -6.576 36.104z"/><path d="m140.421 349.064a27.91 27.91 0 0 1 -24.844 0 8 8 0 0 0 -7.156 14.311 43.98 43.98 0 0 0 39.156 0 8 8 0 0 0 -7.156-14.311z"/><path d="m488 16h-71.44a8 8 0 0 0 -6.377 3.169 34.175 34.175 0 0 1 -27.463 13.631h-.206a137.14 137.14 0 0 1 -34.777-4.64l-40.637-10.853a7.984 7.984 0 0 0 -1.05-.206 32.116 32.116 0 0 0 -33.469 19.142l-1.543 3.543-5.089-2.977a40.169 40.169 0 0 0 -55.849 7.882l-43.419 57.409a39.82 39.82 0 0 0 7.673 56.022l19.088 14.525-61.533 81.163a8.04 8.04 0 0 0 -.859 1.417l-17.039 35.707a8 8 0 0 0 2.386 9.82l12.75 9.667a8 8 0 0 0 10.1-.354l29.8-26.07a3.674 3.674 0 0 0 .272-.264 8.115 8.115 0 0 0 .835-.924l39.986-52.742a31.965 31.965 0 0 0 29.416 19.6 32.564 32.564 0 0 0 4.426-.3c.674-.093 1.338-.213 2-.346a31.975 31.975 0 0 0 31.825 29.649 32.564 32.564 0 0 0 4.426-.3c.912-.125 1.81-.3 2.7-.5.049.621.111 1.242.2 1.863a31.972 31.972 0 0 0 31.667 27.626 32.251 32.251 0 0 0 9.958-1.588 31.968 31.968 0 0 0 31.514 26.983 32.564 32.564 0 0 0 4.426-.3 31.788 31.788 0 0 0 21.139-12.369l2.946-3.886a35.984 35.984 0 0 0 34.942-60.612l63-83.106a55.755 55.755 0 0 0 11.275-33.681v-114.8a8 8 0 0 0 -8-8zm-80.018 122.423a15.826 15.826 0 0 1 4.622 23.226 15.838 15.838 0 0 1 -20.604 4.101l-147.828-86.469 19.258-25.412zm-158.294-13.56 12.521-16.5 13.946 8.158-13.69 18.025zm-15.249-32.739 13.861 8.106-11.362 14.97-12.692-9.622zm-100.82 201.608-2.361-1.79 10.017-20.993 9.852 7.47zm28.623-26.964-12.75-9.667 56.718-74.811 12.75 9.667zm79.566-33.253a16 16 0 0 1 -14.931-25.515l9.666-12.75a15.9 15.9 0 0 1 10.569-6.185 16.388 16.388 0 0 1 2.214-.152 16 16 0 0 1 12.717 25.67l-9.666 12.75a15.9 15.9 0 0 1 -10.569 6.182zm38.25 29a16 16 0 0 1 -14.931-25.515l9.666-12.75a15.906 15.906 0 0 1 10.569-6.185 16.4 16.4 0 0 1 2.215-.152 15.988 15.988 0 0 1 12.9 25.4c-.079.1-.163.186-.238.286-.119.159-.223.324-.329.488l-9.283 12.245a15.9 15.9 0 0 1 -10.569 6.182zm27.109 25.608a16 16 0 0 1 -3.084-22.417l9.666-12.749a16 16 0 1 1 25.5 19.332l-.169.223c-.176.21-.342.427-.5.653l-9 11.874a16 16 0 0 1 -22.416 3.084zm53.346 28.477a16 16 0 0 1 -14.931-25.517l9.666-12.75a15.9 15.9 0 0 1 10.57-6.185 16.388 16.388 0 0 1 2.214-.152 16 16 0 0 1 12.716 25.67l-9.666 12.75a15.894 15.894 0 0 1 -10.569 6.184zm52.312-22.8a19.826 19.826 0 0 1 -15.9 7.872 32 32 0 0 0 -33.288-45.372 32.449 32.449 0 0 0 -5.562 1.279 31.931 31.931 0 0 0 -38.633-26.146c-.05-.625-.111-1.251-.2-1.878a32 32 0 0 0 -36.062-27.34c-.668.092-1.328.211-1.982.342-.051-.666-.114-1.333-.206-2a32 32 0 0 0 -51.561-20.734l-45.395-34.432a23.9 23.9 0 0 1 -9.559-19.151 23.626 23.626 0 0 1 4.941-14.455l43.425-57.419a24.152 24.152 0 0 1 26.472-8.366l-42.652 56.28a4.8 4.8 0 0 0 -.277.407 7.993 7.993 0 0 0 1.82 10.8l200.794 152.24a20.107 20.107 0 0 1 3.825 28.073zm67.175-155a39.84 39.84 0 0 1 -8.055 24.047l-62.835 82.885-133.9-101.515 14.852-19.554 93.853 54.9a31.829 31.829 0 1 0 32.141-54.949l-15.577-9.114a58.344 58.344 0 0 0 33.393-21.627 8 8 0 1 0 -12.75-9.666 42.526 42.526 0 0 1 -55.322 11.006l-80.847-47.29 2.325-5.342a16.067 16.067 0 0 1 16.272-9.662l40.061 10.7a153.277 153.277 0 0 0 38.87 5.181h.241a50.762 50.762 0 0 0 37.6-16.8h59.678z"/></svg>