<svg height="512" viewBox="0 0 60 60" width="512" xmlns="http://www.w3.org/2000/svg"><g id="030---Mount-Dental-Implants" transform="translate(-1)"><path id="Shape" d="m58.45 32.89c.53-.26 1.42-.71 1.55-10.67.672139-1.6576702 1.011912-3.4312856 1-5.22 0-2.33-1.83-3.37-4.46-.95-1 .16-3.45.7-4.26 2.25-1.0869896-.5362608-2.3922553-.3452464-3.28.48-.8430982-.6757459-1.9345329-.959519-3-.78-.7400546.0044106-1.452363.2822109-2 .78-.547637-.4977891-1.2599454-.7755894-2-.78-1.91 0-2.93-.19-4 .78-.547637-.4977891-1.2599454-.7755894-2-.78h-3c-.7400546.0044106-1.452363.2822109-2 .78-.547637-.4977891-1.2599454-.7755894-2-.78h-3c-.7400546.0044106-1.452363.2822109-2 .78-.547637-.4977891-1.2599454-.7755894-2-.78-1.91 0-2.93-.19-4 .78-.547637-.4977891-1.2599454-.7755894-2-.78-1.23 0-2-.09-3 .78-.8934989-.8034845-2.180234-.9962981-3.27-.49-.82-1.54-3.25-2.08-4.27-2.24-2.64-2.43-4.46-1.36-4.46.95-.01191204 1.7887144.32786102 3.5623298 1 5.22.13 10 1 10.41 1.55 10.67 3.85 1.93 6.01 6.11 11.45 6.11v8c-3.2777253.0576272-6.4947628-.8879445-9.22-2.71-.58409457-.3858095-1.33888968-.3979947-1.9351335-.0312404-.59624383.3667543-.92578238 1.0459217-.8448665 1.7412404.52692137 3.6464852.86072041 7.3182746 1 11 0 1.6568542 1.34314575 3 3 3h48c1.6568542 0 3-1.3431458 3-3 0-3.73.49-6.2 1-11 .0733577-.6902887-.2567604-1.3612412-.8484005-1.7243416-.59164-.3631004-1.3393468-.3536289-1.9215995.0243416-2.729202 1.8204841-5.9499416 2.7626289-9.23 2.7v-8c5.43 0 7.61-4.19 11.45-6.11zm-4.45-13.59c.36-.77 2.28-1.21 3.12-1.31.2224601-.024675.4302108-.1232686.59-.28.372315-.3975984.8041291-.7349532 1.28-1 .0112201.0962334.0145646.1932223.01.29.0235716 1.5695714-.2830582 3.1265691-.9 4.57-.0649512.1340937-.099117.2810067-.1.43 0 .63-.15.9-.31 1-.4409545.1694133-.9290455.1694133-1.37 0-.4715447-.1572201-.9869873.0557727-1.21.5-.1716447.4566052-.6235016.7456308-1.11.71zm-3 .7c.5522847 0 1 .4477153 1 1v3.68c-.64.83-1.18.92-2 0v-3.68c0-.5522847.4477153-1 1-1zm-5 0h1c.5522847 0 1 .4477153 1 1v3.75c-.2415655.4824527-.582341.908422-1 1.25-.8325619-.0757438-1.5773687-.5486962-2-1.27v-3.73c0-.5522847.4477153-1 1-1zm-6 0h2c.5522847 0 1 .4477153 1 1v3.73c-.4188852.7249074-1.1657698 1.1991792-2 1.27-.6997234.0182402-1.3911807-.1546241-2-.5v-4.5c0-.5522847.4477153-1 1-1zm-7 0h3c.5522847 0 1 .4477153 1 1v4.59l-.89.88c-.6424004.3643831-1.3716607.5475622-2.11.53-.8325619-.0757438-1.5773687-.5486962-2-1.27v-4.73c0-.5522847.4477153-1 1-1zm-7 0h3c.5522847 0 1 .4477153 1 1v4.73c-.4188852.7249074-1.1657698 1.1991792-2 1.27-.7383393.0175622-1.4675996-.1656169-2.11-.53l-.89-.88v-4.59c0-.5522847.4477153-1 1-1zm-6 0h2c.5522847 0 1 .4477153 1 1v4.5c-.609382.3439671-1.3004432.5167324-2 .5-.8325619-.0757438-1.5773687-.5486962-2-1.27v-3.73c0-.5522847.4477153-1 1-1zm-5 0h1c.5522847 0 1 .4477153 1 1v3.73c-.415018.7286048-1.1640681 1.2042517-2 1.27-.4291697-.3300185-.7722388-.7588547-1-1.25v-3.75c0-.5522847.4477153-1 1-1zm-4 0c.5522847 0 1 .4477153 1 1v3.66c-.68.77-1.18.67-1.08.67-.34 0-.68-.34-.92-.65v-3.68c0-.5522847.4477153-1 1-1zm-8-3.25c.47413973.2676485.90557948.6047109 1.28 1 .15978924.1567314.36753994.255325.59.28.74.09 2.57.47 3.1 1.25v5c-.48736199.0390665-.94111226-.2511701-1.11-.71-.22301275-.4442273-.73845527-.6572201-1.21-.5-.43762852.1687545-.92237148.1687545-1.36 0-.29-.32-.29-1.18-.29-1.07-.00111397-.142569-.03534791-.2829281-.1-.41-.6395704-1.5313334-.94634883-3.1811196-.9-4.84zm1.67 14.47c-.38614871-2.0509728-.58364025-4.1330022-.59-6.22.47388239.1184063.96596798.1455558 1.45.08.75009116.9219416 1.97373085 1.3141338 3.12 1 .46787528.6520651 1.19141921 1.0738882 1.9893646 1.1597915.7979453.0859032 1.5946927-.1722523 2.1906354-.7097915.4597076.7967764 1.25955 1.3386052 2.17 1.47 1.1420247-.0137383 2.2276429-.4986477 3-1.34.7723571.8413523 1.8579753 1.3262617 3 1.34 1.0054168.0178868 1.9981055-.2268386 2.88-.71l.68.68c1.0018536.7129898 2.211166 1.0750805 3.44 1.03 1.1420247-.0137383 2.2276429-.4986477 3-1.34.7723571.8413523 1.8579753 1.3262617 3 1.34 1.22514.0515798 2.4334385-.2996698 3.44-1l.68-.68c.8847294.4727357 1.8772579.7070827 2.88.68 1.1420247-.0137383 2.2276429-.4986477 3-1.34.7723571.8413523 1.8579753 1.3262617 3 1.34.8956288-.1132353 1.6926493-.6237692 2.17-1.39.5959427.5375392 1.3926901.7956947 2.1906354.7097915.7979454-.0859033 1.5214893-.5077264 1.9893646-1.1597915 1.1462692.3141338 2.3699088-.0780584 3.12-1 .4891132.0395605.98128-.0147475 1.45-.16-.0087937 2.0736322-.2062747 4.1421622-.59 6.18-3.99 2.14-5.85 5.82-10.33 5.82v-5c0-.5522847-.4477153-1-1-1s-1 .4477153-1 1v4.87c-4.32-.56-6.86-2.87-14-2.87s-9.68 2.31-14 2.87v-4.87c0-.5522847-.4477153-1-1-1s-1 .4477153-1 1v5c-4.48 0-6.34-3.68-10.33-5.78zm52.33 14.97c-.65 5.86-1 7.32-1 10.81 0 .5522847-.4477153 1-1 1h-48c-.55228475 0-1-.4477153-1-1 0-3.61-.34-5.19-1-10.81 2.98792086 1.8919478 6.4639442 2.8687103 10 2.81v4l-2.4-1.8c-.4418278-.3313708-1.0686292-.2418278-1.4.2s-.2418278 1.0686292.2 1.4c4.19 3.14 4.16 3.2 4.6 3.2s.65-.23 4.6-3.2c.4418278-.3313708.5313708-.9581722.2-1.4s-.9581722-.5313708-1.4-.2l-2.4 1.8v-4.15c5.11-.73 8-3.85 14-3.85s8.91 3.12 14 3.85v4.15l-2.4-1.8c-.2858125-.2143594-.6642734-.2599564-.9928203-.1196152-.3285469.1403411-.5572656.4452994-.6.8-.0427344.3547005.1070078.7052558.3928203.9196152 3.88 2.91 4.1 3.2 4.6 3.2s.43-.07 4.6-3.2c.4418278-.3313708.5313708-.9581722.2-1.4s-.9581722-.5313708-1.4-.2l-2.4 1.8v-4c3.5360558.0587103 7.0120791-.9180522 10-2.81zm-12 .64c-4.55-.76-7.64-3.83-14-3.83s-9.46 3.07-14 3.83v-7.94c4.85-.56 7.05-2.89 14-2.89s9.14 2.33 14 2.89z"/><path id="Shape" d="m59 0h-56c-1.1045695 0-2 .8954305-2 2v5c-.03263711 1.79621614.80774312 3.4967388 2.25443558 4.561886 1.44669245 1.0651472 3.32005936 1.3626581 5.02556442.798114.86346306.6998762 2.0485921.8509221 3.06.39 1.0055769 1.2296925 2.7286101 1.5992105 4.15.89.5535369.8478743 1.4974323 1.3593076 2.51 1.36.8448508.1207127 1.7064284-.018814 2.47-.4.5479598.8691113 1.5025725 1.3973555 2.53 1.4 1.23 0 2 .09 3-.78.8430982.6757459 1.9345329.959519 3 .78.7400546-.0044106 1.452363-.2822109 2-.78.547637.4977891 1.2599454.7755894 2 .78 1.23 0 2 .09 3-.78.8430982.6757459 1.9345329.959519 3 .78 1.0274275-.0026445 1.9820402-.5308887 2.53-1.4.7635716.381186 1.6251492.5207127 2.47.4 1.0125677-.0006924 1.9564631-.5121257 2.51-1.36 1.4203792.7171282 3.1485915.3464995 4.15-.89 1.0110391.4633471 2.1975023.3121312 3.06-.39 1.7055051.5645441 3.578872.2670332 5.0255644-.798114 1.4466925-1.0651472 2.2870727-2.76566986 2.2544356-4.561886v-5c0-1.1045695-.8954305-2-2-2zm-56 2h56v3c-.9917208-.01636188-1.9727697.20660379-2.86.65-.51-2-3-2.21-4.6-.5-.2166447-.67174916-.8343836-1.1330477-1.54-1.15-1.5230639.12057114-2.8582452 1.06440622-3.48 2.46-.4939768-.92631787-1.4706948-1.49219421-2.52-1.46-1.3495394.05110044-2.534576.91222698-3 2.18-1-1.56-3.1-1.86-4.61.8-.277979-1.11161992-1.2460737-1.91363977-2.39-1.98-1.4 0-2.36 1.28-3 2.68-.64-1.4-1.6-2.68-3-2.68-1.1344908.08571423-2.0840009.893808-2.35 2-1.5-2.67-3.65-2.39-4.65-.82-.465424-1.26777302-1.6504606-2.12889956-3-2.18-1.0516651-.03130133-2.0308928.53378663-2.53 1.46-.6147962-1.39693008-1.9483116-2.34230409-3.47-2.46-.7056164.0169523-1.3233553.47825084-1.54 1.15-1.62-1.7-4.08-1.52-4.6.5-.8872303-.44339621-1.86827922-.66636188-2.86-.65zm0 5c1.19541057-.10198818 2.3579683.42438161 3.07 1.39.20712345.76840561.49541262 1.51259393.86 2.22-1.01669785.1130424-2.03259005-.2192514-2.78595484-.91127354-.75336479-.69202211-1.1705383-1.67610668-1.14404516-2.69872646zm7 4c-1.2 0-2.66-4.42-2.17-5 .05612788-.01105105.11387212-.01105105.17 0 1 0 1.76 1.54 2 2.21.0065485.92411115.1411628 1.8428542.4 2.73-.1308638.0339549-.2649332.0540653-.4.06zm4 1c-2.25 0-2.22-4.66-1.74-6 1.38.32 2.38 3.11 2.74 5 .0286468.2729969-.0674658.5443384-.2615637.7384363s-.4654394.2902105-.7384363.2615637zm5 1h-1c-.5522847 0-1-.4477153-1-1 0-1.55 0-1.16 0-1.27-.3120701-1.14958579-.1910772-2.37374854.34-3.44.1634313-.19337519.4070269-.30040962.66-.29 1.5 0 2 3.37 2 5 0 .5522847-.4477153 1-1 1zm5 1h-1c-.5522847 0-1-.4477153-1-1v-1c0-2.06.57-4 1-4s1.56 2 2 4.1v.9c0 .5522847-.4477153 1-1 1zm5 0h-1c-.5522847 0-1-.4477153-1-1v-1c0-2.06.57-4 1-4s1.56 2 2 4.1v.9c0 .5522847-.4477153 1-1 1zm5 0h-1c-.5522847 0-1-.4477153-1-1v-.9c.44-2.1 1.42-4.1 2-4.1s1 1.94 1 4v1c0 .5522847-.4477153 1-1 1zm6-1c0 .5522847-.4477153 1-1 1h-1c-.5522847 0-1-.4477153-1-1v-.9c.44-2.1 1.42-4.1 2-4.1s1 1.94 1 4zm5-1c0 .5522847-.4477153 1-1 1h-1c-.5522847 0-1-.4477153-1-1 0-1.63.5-5 2-5 .2641051-.02533276.5232899.08359999.69.29.47.56.61 2 .33 3.53-.0440511.3918104-.0507479.7869218-.02 1.18zm3 0c-.260803.0293672-.5214322-.0565709-.7136178-.2353034-.1921856-.1787326-.2967788-.4324514-.2863822-.6946966.36-1.92 1.36-4.72 2.74-5 .48 1.28.51 5.93-1.74 5.93zm3.59-1.06c.2622215-.8866688.4002026-1.80542131.41-2.73.21-.6 1-2.21 2-2.21.0564436-.00711122.1135564-.00711122.17 0 .49.56-1 5-2.17 5-.1384239-.0052285-.2758825-.0253444-.41-.06zm3.49-.33c.3612847-.70775128.6462225-1.4519419.85-2.22.7132917-.96405986 1.8749293-1.49001305 3.07-1.39.0294689 1.02169871-.3853635 2.00601209-1.1372318 2.69842143-.7518683.69240937-1.7669492 1.02492927-2.7827682.91157857z"/></g></svg>